HIERARCHY
ROOT root
{
	OFFSET 0.000000 0.000000 0.000000
	CHANNELS 6 Xposition Yposition Zposition Zrotation Yrotation Xrotation
	JOINT lhip
	{
		OFFSET 0.058581 -0.082280 -0.017664
		CHANNELS 3 Zrotation Yrotation Xrotation
		JOINT lknee
		{
			OFFSET 0.043451 -0.386469 0.008037
			CHANNELS 3 Zrotation Yrotation Xrotation
			JOINT lankle
			{
				OFFSET -0.014790 -0.426874 -0.037428
				CHANNELS 3 Zrotation Yrotation Xrotation
				JOINT ltoe
				{
					OFFSET 0.041054 -0.060286 0.122042
					CHANNELS 3 Zrotation Yrotation Xrotation
					End Site
					{
						OFFSET 0.000000 0.000000 0.000000
					}
				}
			}
		}
	}
	JOINT rhip
	{
		OFFSET -0.060310 -0.090513 -0.013543
		CHANNELS 3 Zrotation Yrotation Xrotation
		JOINT rknee
		{
			OFFSET -0.043257 -0.383688 -0.004843
			CHANNELS 3 Zrotation Yrotation Xrotation
			JOINT rankle
			{
				OFFSET 0.019056 -0.420046 -0.034562
				CHANNELS 3 Zrotation Yrotation Xrotation
				JOINT rtoe
				{
					OFFSET -0.034840 -0.062106 0.130323
					CHANNELS 3 Zrotation Yrotation Xrotation
					End Site
					{
						OFFSET 0.000000 0.000000 0.000000
					}
				}
			}
		}
	}
	JOINT lowerback
	{
		OFFSET 0.004439 0.124404 -0.038385
		CHANNELS 3 Zrotation Yrotation Xrotation
		JOINT upperback
		{
			OFFSET 0.004488 0.137956 0.026820
			CHANNELS 3 Zrotation Yrotation Xrotation
			JOINT chest
			{
				OFFSET -0.002265 0.056032 0.002855
				CHANNELS 3 Zrotation Yrotation Xrotation
				JOINT lowerneck
				{
					OFFSET -0.013390 0.211636 -0.033468
					CHANNELS 3 Zrotation Yrotation Xrotation
					JOINT upperneck
					{
						OFFSET 0.010113 0.088937 0.050410
						CHANNELS 3 Zrotation Yrotation Xrotation
						End Site
						{
							OFFSET 0.000000 0.000000 0.000000
						}
					}
				}
				JOINT lclavicle
				{
					OFFSET 0.071702 0.114000 -0.018898
					CHANNELS 3 Zrotation Yrotation Xrotation
					JOINT lshoulder
					{
						OFFSET 0.122921 0.045205 -0.019046
						CHANNELS 3 Zrotation Yrotation Xrotation
						JOINT lelbow
						{
							OFFSET 0.255332 -0.015649 -0.022946
							CHANNELS 3 Zrotation Yrotation Xrotation
							JOINT lwrist
							{
								OFFSET 0.265709 0.012698 -0.007375
								CHANNELS 3 Zrotation Yrotation Xrotation
								End Site
								{
									OFFSET 0.000000 0.000000 0.000000
								}
							}
						}
					}
				}
				JOINT rclavicle
				{
					OFFSET -0.082954 0.112472 -0.023707
					CHANNELS 3 Zrotation Yrotation Xrotation
					JOINT rshoulder
					{
						OFFSET -0.113228 0.046853 -0.008472
						CHANNELS 3 Zrotation Yrotation Xrotation
						JOINT relbow
						{
							OFFSET -0.260127 -0.014369 -0.031269
							CHANNELS 3 Zrotation Yrotation Xrotation
							JOINT rwrist
							{
								OFFSET -0.269108 0.006794 -0.006027
								CHANNELS 3 Zrotation Yrotation Xrotation
								End Site
								{
									OFFSET 0.000000 0.000000 0.000000
								}
							}
						}
					}
				}
			}
		}
	}
}
MOTION
Frames: 17
Frame Time: 0.033333
0.062383 0.376411 0.947547 132.047211 2.570926 83.959764 8.292624 4.195860 11.443008 -5.216739 -1.290188 22.558383 3.634315 3.800163 -31.878277 0.000000 -0.000000 0.000000 -13.598770 -1.094582 -21.590176 -4.335938 -11.651046 31.071674 13.228023 -2.290314 0.586950 0.000000 -0.000000 0.000000 -1.559929 -5.984610 16.648511 5.787471 -4.373820 -2.536163 0.769330 -6.906891 -1.889446 7.188925 -5.732074 -19.532892 -3.055894 -15.273869 14.028259 -24.976372 -6.091025 0.431256 -63.070381 -25.012356 25.675177 -174.974415 -61.569518 -159.767870 7.484615 -20.991154 -23.238273 27.151004 1.264857 -8.586507 53.972780 11.668204 25.373064 -157.914387 50.299868 -136.564197 12.683025 20.258650 -20.456784 
0.057313 0.377373 0.946465 130.985605 2.950825 84.027056 8.050325 4.274096 10.985917 -5.124731 -0.999941 23.248877 3.844403 4.506236 -32.309008 0.000000 -0.000000 0.000000 -13.257953 -0.379311 -21.994943 -4.025802 -11.107833 30.501188 13.224447 -2.620607 1.281400 0.000000 -0.000000 0.000000 -1.240229 -6.444688 16.891565 5.730410 -4.572424 -2.660438 0.757440 -6.955210 -2.263563 7.742113 -5.371731 -19.056369 -2.583688 -14.122195 13.844197 -26.152786 -7.626750 1.069009 -62.397678 -25.576853 25.697248 -175.841923 -61.995319 -159.132381 7.207324 -21.153779 -22.400133 26.549296 2.101895 -8.337724 52.037294 12.117066 24.320805 -155.976577 49.819342 -134.909156 11.762528 20.092448 -20.125493 
0.054863 0.379807 0.947138 129.667213 3.149807 84.139269 7.758523 4.382821 11.190731 -4.977719 -0.177624 22.977436 3.928833 4.893105 -32.397657 0.000000 -0.000000 0.000000 -12.959176 -0.227918 -21.664631 -3.842750 -10.933270 28.613077 13.399774 -1.750927 2.672820 0.000000 -0.000000 0.000000 -0.771434 -7.288129 16.656540 5.436080 -5.473349 -2.945721 0.530378 -6.539566 -2.756932 8.369451 -5.415308 -17.480510 -1.776177 -12.619441 13.614651 -27.289879 -9.192473 2.391417 -61.286140 -25.744656 25.264210 -177.696287 -62.325199 -157.529600 6.595979 -21.923481 -21.600997 25.755184 2.918930 -7.295703 50.101629 12.793705 22.594385 -152.749595 50.042811 -132.690202 10.980597 19.853963 -20.788129 
0.052181 0.381884 0.948318 128.055520 3.562815 84.481910 7.166826 4.323044 11.044831 -4.538306 -0.063681 22.794038 4.181512 5.956297 -32.557036 0.000000 -0.000000 0.000000 -12.773759 0.550391 -22.153748 -3.363804 -10.788110 27.476533 14.024773 -1.172085 3.928990 0.000000 -0.000000 0.000000 -0.147633 -7.257309 16.210344 5.717953 -5.558801 -2.889713 0.754838 -7.536796 -3.108676 8.770871 -5.179056 -16.805109 -1.178990 -11.163011 13.453875 -27.591675 -11.332175 2.929617 -61.987796 -26.227461 25.635250 179.379125 -63.207030 -154.329261 6.710006 -21.685850 -20.084603 23.996337 2.695654 -7.755794 48.782852 12.406864 20.960593 -150.711401 49.104291 -130.037036 10.676102 19.359929 -21.413577 
0.050692 0.385129 0.949226 126.021566 3.840500 84.972409 6.785860 4.846980 11.082829 -4.475297 0.428173 22.383631 4.591743 6.659544 -32.943681 0.000000 -0.000000 0.000000 -13.140649 1.258821 -23.777239 -2.468958 -10.445600 28.148963 15.077291 0.114974 5.446195 0.000000 -0.000000 0.000000 0.910079 -8.800817 16.744977 5.577858 -5.893674 -4.565339 0.562613 -7.790104 -3.485235 9.172106 -4.638133 -15.268668 -0.725481 -8.640671 13.438436 -27.108986 -11.530033 2.799353 -62.822224 -26.666077 25.204260 176.985727 -63.827792 -151.350097 5.790695 -21.583634 -18.748569 21.921039 1.776852 -8.140556 48.042356 12.591464 19.452561 -148.214451 48.417187 -128.149279 10.494450 19.319713 -22.694525 
0.051917 0.387593 0.947707 123.805737 4.197540 85.050185 6.786388 5.428246 11.302701 -4.724979 0.894109 22.714615 4.826812 7.663297 -33.781200 0.000000 -0.000000 0.000000 -13.692699 2.795045 -25.936685 -1.029913 -9.104304 30.259982 16.455149 2.213475 5.073834 0.000000 -0.000000 0.000000 1.379727 -9.966261 16.565742 6.086697 -6.648338 -4.380787 0.663873 -8.519602 -3.364854 9.620837 -3.054447 -14.219164 -0.255665 -6.023662 12.468341 -26.241327 -12.717256 2.535100 -62.020135 -27.986979 23.855792 171.083981 -63.684700 -145.168227 6.055150 -21.215238 -17.338065 20.056951 1.320506 -8.442201 46.844891 13.283179 17.628355 -145.274448 46.605288 -125.607230 8.608719 19.226625 -23.563537 
0.054628 0.389683 0.944011 121.975560 4.322696 84.825933 7.078685 6.287752 11.388870 -5.192295 1.579458 23.870020 4.666586 8.084418 -34.863802 0.000000 -0.000000 0.000000 -14.274015 3.979117 -28.093725 0.048826 -7.594724 32.716763 17.627726 4.193935 3.345007 0.000000 -0.000000 0.000000 1.718022 -11.251699 17.979173 6.628223 -7.377691 -5.324830 0.804992 -9.646418 -2.856530 10.091269 -0.928907 -14.008907 -0.116887 -3.750433 11.856080 -24.496869 -12.517311 1.270998 -60.742418 -30.024090 21.799482 165.212503 -63.169634 -139.669267 6.319339 -21.392319 -16.833462 17.939153 -1.118675 -10.390026 46.431764 13.086554 15.992422 -142.430033 45.288567 -123.402472 7.520142 18.831876 -26.051487 
0.059500 0.392403 0.938421 120.779230 4.374215 84.425323 7.744894 7.461336 11.440157 -5.667357 1.806508 25.784346 4.293748 7.988272 -36.017194 0.000000 -0.000000 0.000000 -14.676073 3.867425 -29.727188 -0.276772 -7.716720 33.670494 17.321589 3.654714 2.077805 0.000000 -0.000000 0.000000 1.845381 -12.261944 19.092260 7.254005 -8.468230 -5.510917 1.314783 -10.906281 -2.615445 10.368319 0.273958 -12.589194 0.340661 -0.883316 10.305671 -22.722990 -12.891540 0.864619 -57.510077 -32.126483 17.565287 157.084366 -62.372892 -131.353817 6.377405 -21.097451 -16.558653 16.210191 -3.499695 -11.726770 45.298866 11.433310 13.393257 -138.847441 43.039448 -120.784162 6.177024 18.783621 -29.290996 
0.065347 0.395077 0.930811 119.729467 4.046004 83.749970 7.864920 8.085532 11.403640 -5.971203 2.102717 28.666864 2.281515 7.246030 -37.886779 0.000000 -0.000000 0.000000 -15.385266 3.532810 -30.664256 -1.450841 -9.047629 32.408667 16.631681 1.021930 1.308857 0.000000 -0.000000 0.000000 1.244742 -13.312430 21.009810 7.752708 -9.643261 -6.992497 2.414128 -12.447854 -1.318336 9.411831 -0.325668 -10.392007 1.928532 3.970411 8.921962 -20.730492 -13.307893 1.342419 -52.064903 -33.689362 11.833381 145.678899 -59.150906 -120.078565 5.408927 -20.179131 -13.751554 14.163072 -6.220819 -11.950416 43.765792 8.798067 9.177526 -134.445146 42.183879 -119.159447 10.131609 19.736655 -31.222525 
0.075286 0.397079 0.921610 118.068425 3.834053 83.204364 8.354997 8.875988 11.468088 -6.794428 1.723339 31.691949 1.339285 7.516302 -38.773863 0.000000 -0.000000 0.000000 -15.397222 3.722037 -31.933617 -2.473415 -9.556050 30.081580 15.020766 -2.294759 1.867949 0.000000 -0.000000 0.000000 1.145054 -13.974548 22.606351 8.441825 -10.481350 -7.489558 3.242549 -13.496082 -0.576101 8.605913 0.334846 -8.745743 2.189032 7.051243 7.058572 -18.710475 -11.677276 0.912876 -46.007551 -33.836192 4.822526 136.890492 -56.331905 -112.381893 4.833048 -20.081703 -13.978534 13.234953 -9.253726 -12.491324 42.060004 5.347324 6.275213 -128.566155 41.156992 -115.676497 10.404240 19.856119 -33.878593 
0.085834 0.399419 0.911196 116.177201 2.953667 82.998131 7.906183 9.739895 10.962167 -8.164546 0.556709 35.412136 0.272800 8.261261 -39.242961 0.000000 -0.000000 0.000000 -15.907406 3.558381 -33.937869 -2.822549 -9.598073 27.875909 14.840225 -5.025137 3.147003 0.000000 -0.000000 0.000000 0.758364 -15.155780 24.209527 8.871480 -10.955012 -8.593077 3.595914 -14.250691 1.008606 8.001603 1.824739 -7.381237 1.831022 9.996756 5.029009 -16.855449 -7.954680 0.436449 -38.814621 -32.446626 -2.021631 128.754503 -53.513287 -108.132192 4.848252 -19.406800 -15.835086 12.928261 -13.403763 -13.292210 40.779892 2.240775 4.712045 -120.892697 41.581766 -111.521665 12.120844 19.223317 -34.422152 
0.101775 0.401458 0.900094 113.357999 2.134173 82.666046 7.720847 10.308564 11.702146 -9.279231 0.804441 37.764554 -0.892192 8.759542 -39.874209 0.000000 -0.000000 0.000000 -15.968404 4.389792 -35.523948 -2.478908 -8.864731 24.805649 14.949618 -6.063652 4.104341 0.000000 -0.000000 0.000000 0.583193 -15.875958 25.272183 9.125759 -11.309600 -7.839030 4.009363 -14.673474 1.747056 7.535618 4.040770 -6.282847 1.141995 12.890566 2.426338 -15.458822 -4.294196 0.058295 -32.239972 -27.543992 -7.745998 121.758881 -50.860474 -103.918806 5.688228 -19.700038 -16.282992 13.327572 -16.835839 -14.184131 39.161406 -1.365744 3.112588 -111.275186 43.032844 -105.671109 13.067976 18.651260 -35.158718 
0.120582 0.403857 0.888005 110.702726 1.333863 82.856832 7.226410 11.411972 12.427283 -10.133771 -0.263278 39.496283 -2.010102 9.246931 -40.784811 0.000000 -0.000000 0.000000 -15.905450 4.951008 -37.547260 -2.057876 -7.570079 22.665130 15.912137 -5.106504 3.935776 0.000000 -0.000000 0.000000 0.644761 -16.923551 25.674341 9.200706 -11.188882 -7.333188 4.128129 -14.703289 3.428878 7.025381 6.162347 -5.221935 -0.270842 15.548414 -0.654316 -14.584102 0.599934 0.044455 -28.359836 -22.773869 -11.283513 117.948654 -48.358385 -102.233053 6.197689 -20.120479 -17.145752 13.745527 -20.173382 -14.281088 38.239446 -4.066639 1.166488 -97.983065 44.660254 -97.203151 15.908973 18.432506 -36.199823 
0.143370 0.406339 0.876126 108.252431 0.552594 83.625859 6.326469 12.051708 13.208553 -10.827561 -1.258627 40.150731 -2.806767 10.326118 -42.053841 0.000000 -0.000000 0.000000 -15.884762 5.692517 -39.897826 -1.306543 -5.162927 21.414573 16.719755 -4.466378 3.894198 0.000000 -0.000000 0.000000 0.971577 -18.187856 26.759908 9.186309 -10.463583 -7.157854 4.794740 -14.919907 3.873610 6.592256 7.683641 -5.269717 -2.190030 18.192423 -3.160212 -14.299290 6.553941 -0.794549 -28.223759 -17.250224 -12.501011 118.434891 -46.492774 -102.730099 5.160210 -20.204637 -17.517677 14.196872 -22.419380 -13.583326 36.729196 -6.244544 -0.565097 -80.355001 45.289587 -86.544190 17.311313 17.571902 -36.955438 
0.169096 0.408053 0.863774 106.752454 0.130688 85.014079 5.808953 12.189750 13.690695 -11.097279 -1.973460 40.222270 -3.398981 10.664943 -42.846408 0.000000 -0.000000 0.000000 -16.106590 6.167532 -42.916073 -0.346542 -2.774887 22.395767 17.745923 -2.375265 5.026262 0.000000 -0.000000 0.000000 2.005288 -19.154993 26.624211 9.493009 -9.553984 -6.891705 5.320085 -15.050834 4.211005 5.269803 8.579536 -4.803150 -4.269232 19.611555 -6.024549 -14.558849 11.284849 -1.236097 -30.404756 -13.134916 -12.229025 120.500937 -44.568640 -103.541885 5.246647 -20.161178 -18.025347 14.021395 -23.959937 -12.065035 36.529883 -7.625640 -2.917145 -61.443780 42.774536 -73.254984 18.468454 16.363459 -36.647963 
0.198597 0.409602 0.852795 106.180939 -0.235818 86.496982 5.545270 11.846592 14.651832 -11.519747 -3.229648 39.618839 -3.318426 11.063238 -43.096894 0.000000 -0.000000 0.000000 -16.844007 6.406970 -45.894836 1.461582 -0.585798 26.319863 19.720826 -0.036246 6.220829 0.000000 -0.000000 0.000000 3.189523 -19.956501 26.643037 9.726748 -7.535933 -6.738981 5.701195 -14.143439 4.697514 4.700787 8.627102 -7.299500 -6.519600 20.113887 -7.720578 -15.171688 15.223426 -1.463146 -34.409715 -12.996506 -10.524730 124.129049 -42.779435 -104.277582 5.387449 -20.055509 -19.242797 16.776517 -25.726489 -12.427279 34.523637 -9.451430 -4.820948 -43.992884 37.463064 -63.568852 22.841254 17.483019 -38.245506 
0.231452 0.409904 0.842574 106.999026 -0.858845 87.920650 5.630092 10.814770 16.001559 -11.922245 -5.005019 38.552407 -3.130307 10.542712 -42.641997 0.000000 -0.000000 0.000000 -17.970705 5.312327 -49.159186 1.524458 -1.399858 32.117932 21.376032 -0.072494 13.067110 0.000000 -0.000000 0.000000 4.456328 -20.472449 26.250744 10.111471 -5.831788 -5.891720 6.503020 -13.722511 3.587961 2.509673 8.033037 -9.740698 -8.132826 20.987324 -9.284970 -17.422930 17.152788 -1.863452 -38.227262 -11.417838 -8.557488 128.978794 -40.669225 -106.763084 5.925717 -19.683314 -20.666602 19.582185 -25.284378 -11.190475 34.482834 -11.412887 -5.663420 -34.431506 31.096811 -59.552994 21.997796 16.303526 -37.590746 
